<svg version="1.1"
      xmlns="http://www.w3.org/2000/svg"
      xmlns:xlink="http://www.w3.org/1999/xlink"  id="snapshot-33460" width="250" height="250" viewBox="0 0 250 250"><desc>This image was made on Patterninja.com</desc><defs>
<!-- image 38008 -->
<g id="transformed-38008" data-image="38008" transform="translate(-108, -125) rotate(0, 108, 125)"><g><svg version="1.1" width="216px" height="250px" viewBox="0 0 216 250"><g id="original-38008"><svg xmlns="http://www.w3.org/2000/svg" viewBox="0 0 64 74" xmlns:xlink="http://www.w3.org/1999/xlink" version="1.1" preserveAspectRatio="xMidYMid meet">
  <path fill-rule="evenodd" d="M63.854 41.386a12.81 12.81 0 0 0-4.52-9.773V17.05a3 3 0 0 0-3-3H41.773C39.416 11.288 35.915 9.53 32 9.53c-3.916 0-7.416 1.757-9.773 4.52H7.665a3 3 0 0 0-3 3v14.562C1.902 33.969.145 37.47.145 41.386c0 3.915 1.757 7.416 4.52 9.772v14.563a3 3 0 0 0 3 3h14.562c2.357 2.762 5.857 4.52 9.773 4.52 3.915 0 7.416-1.758 9.772-4.52h14.563a3 3 0 0 0 3-3V51.158c2.762-2.356 4.52-5.857 4.52-9.772z" fill="rgba(66, 61, 56, 1)" stroke="none"/>
  <path fill-rule="evenodd" d="M56.335 59.72H7.665a3 3 0 0 1-3-3V8.05a3 3 0 0 1 3-3h48.67a3 3 0 0 1 3 3v48.67a3 3 0 0 1-3 3z" fill="rgba(249, 204, 78, 1)" stroke="none"/>
  <circle cx="16.859" cy="17.242" r="10.446" fill-rule="evenodd" transform="rotate(-45 16.859 17.242)" fill="rgba(209, 104, 84, 1)" stroke="none"/>
  <circle cx="16.859" cy="17.242" r="9.251" fill-rule="evenodd" transform="rotate(-45 16.859 17.242)" fill="rgba(181, 73, 44, 1)" stroke="none"/>
  <circle cx="16.859" cy="17.242" r="7.022" fill-rule="evenodd" transform="rotate(-45 16.859 17.242)" fill="rgba(209, 104, 84, 1)" stroke="none"/>
  <circle cx="47.145" cy="17.242" r="10.446" fill-rule="evenodd" transform="rotate(-45 47.145 17.242)" fill="rgba(209, 104, 84, 1)" stroke="none"/>
  <circle cx="47.145" cy="17.242" r="9.251" fill-rule="evenodd" transform="rotate(-45 47.145 17.242)" fill="rgba(181, 73, 44, 1)" stroke="none"/>
  <circle cx="47.145" cy="17.242" r="7.022" fill-rule="evenodd" transform="rotate(-45 47.145 17.242)" fill="rgba(209, 104, 84, 1)" stroke="none"/>
  <circle cx="47.146" cy="47.529" r="10.446" fill-rule="evenodd" transform="rotate(-45 47.146 47.529)" fill="rgba(209, 104, 84, 1)" stroke="none"/>
  <circle cx="47.146" cy="47.529" r="9.251" fill-rule="evenodd" transform="rotate(-45 47.146 47.529)" fill="rgba(181, 73, 44, 1)" stroke="none"/>
  <circle cx="47.146" cy="47.529" r="7.022" fill-rule="evenodd" transform="rotate(-45 47.146 47.529)" fill="rgba(209, 104, 84, 1)" stroke="none"/>
  <circle cx="16.859" cy="47.529" r="10.446" fill-rule="evenodd" transform="rotate(-45 16.859 47.529)" fill="rgba(209, 104, 84, 1)" stroke="none"/>
  <circle cx="16.859" cy="47.529" r="9.251" fill-rule="evenodd" transform="rotate(-45 16.859 47.529)" fill="rgba(181, 73, 44, 1)" stroke="none"/>
  <circle cx="16.859" cy="47.529" r="7.022" fill-rule="evenodd" transform="rotate(-45 16.859 47.529)" fill="rgba(209, 104, 84, 1)" stroke="none"/>
  <circle cx="12.993" cy="32.386" r="12.848" fill-rule="evenodd" fill="rgba(153, 198, 74, 1)" stroke="none"/>
  <circle cx="32" cy="13.379" r="12.848" fill-rule="evenodd" fill="rgba(153, 198, 74, 1)" stroke="none"/>
  <circle cx="51.006" cy="32.386" r="12.848" fill-rule="evenodd" fill="rgba(153, 198, 74, 1)" stroke="none"/>
  <circle cx="32" cy="51.392" r="12.848" fill-rule="evenodd" fill="rgba(153, 198, 74, 1)" stroke="none"/>
  <path fill-rule="evenodd" d="M4.665 46.768a28.002 28.002 0 0 0 6.993 12.953h40.683a28.002 28.002 0 0 0 6.994-12.953V34.003C56.444 21.575 45.307 12.313 32 12.313c-13.308 0-24.444 9.263-27.335 21.69v12.765z" fill="rgba(83, 71, 65, 0.1)" stroke="none"/>
  <circle cx="32" cy="32.386" r="28.073" fill-rule="evenodd" fill="rgba(229, 175, 110, 1)" stroke="none"/>
  <circle cx="32" cy="32.386" r="26.615" fill-rule="evenodd" fill="rgba(206, 151, 91, 1)" stroke="none"/>
  <ellipse cx="32" cy="26.191" fill-rule="evenodd" rx="22.166" ry="19.293" fill="rgba(229, 175, 110, 1)" stroke="none"/>
  <ellipse cx="32" cy="14.216" fill-rule="evenodd" rx="1.651" ry=".837" fill="rgba(255, 232, 194, 1)" stroke="none"/>
  <ellipse cx="32" cy="32.386" fill-rule="evenodd" rx="1.651" ry=".837" fill="rgba(255, 232, 194, 1)" stroke="none"/>
  <ellipse cx="22.56" cy="36.229" fill-rule="evenodd" transform="rotate(-22.156 22.56 36.23)" rx=".837" ry="1.65" fill="rgba(255, 232, 194, 1)" stroke="none"/>
  <ellipse cx="22.608" cy="28.427" fill-rule="evenodd" transform="rotate(-67.156 22.608 28.427)" rx="1.651" ry=".837" fill="rgba(255, 232, 194, 1)" stroke="none"/>
  <ellipse cx="28.156" cy="22.947" fill-rule="evenodd" transform="rotate(-22.156 28.156 22.947)" rx="1.65" ry=".837" fill="rgba(255, 232, 194, 1)" stroke="none"/>
  <ellipse cx="35.957" cy="22.992" fill-rule="evenodd" transform="rotate(-67.156 35.957 22.992)" rx=".837" ry="1.651" fill="rgba(255, 232, 194, 1)" stroke="none"/>
  <ellipse cx="41.439" cy="28.542" fill-rule="evenodd" transform="rotate(-22.156 41.439 28.542)" rx=".837" ry="1.65" fill="rgba(255, 232, 194, 1)" stroke="none"/>
  <ellipse cx="41.393" cy="36.34" fill-rule="evenodd" transform="rotate(-67.156 41.393 36.34)" rx="1.651" ry=".837" fill="rgba(255, 232, 194, 1)" stroke="none"/>
  <ellipse cx="35.843" cy="41.825" fill-rule="evenodd" transform="rotate(-22.156 35.843 41.825)" rx="1.65" ry=".837" fill="rgba(255, 232, 194, 1)" stroke="none"/>
  <ellipse cx="28.044" cy="41.776" fill-rule="evenodd" transform="rotate(-67.156 28.044 41.776)" rx=".837" ry="1.651" fill="rgba(255, 232, 194, 1)" stroke="none"/>
  <ellipse cx="44.85" cy="19.537" fill-rule="evenodd" transform="rotate(-45 44.85 19.537)" rx=".837" ry="1.651" fill="rgba(255, 232, 194, 1)" stroke="none"/>
  <ellipse cx="50.17" cy="32.386" fill-rule="evenodd" rx=".837" ry="1.651" fill="rgba(255, 232, 194, 1)" stroke="none"/>
  <ellipse cx="44.85" cy="45.233" fill-rule="evenodd" transform="rotate(-45 44.85 45.233)" rx="1.651" ry=".837" fill="rgba(255, 232, 194, 1)" stroke="none"/>
  <ellipse cx="32" cy="50.556" fill-rule="evenodd" rx="1.651" ry=".837" fill="rgba(255, 232, 194, 1)" stroke="none"/>
  <ellipse cx="19.154" cy="45.234" fill-rule="evenodd" transform="rotate(-45 19.154 45.234)" rx=".837" ry="1.651" fill="rgba(255, 232, 194, 1)" stroke="none"/>
  <ellipse cx="13.83" cy="32.386" fill-rule="evenodd" rx=".837" ry="1.651" fill="rgba(255, 232, 194, 1)" stroke="none"/>
  <ellipse cx="19.154" cy="19.537" fill-rule="evenodd" transform="rotate(-45 19.154 19.537)" rx="1.651" ry=".837" fill="rgba(255, 232, 194, 1)" stroke="none"/>
</svg>
</g></svg></g></g>
<!-- /image 38008 -->

<!-- image 54598 -->
<g id="transformed-54598" data-image="54598" transform="translate(-112.5, -125) rotate(0, 112.5, 125)"><g><svg version="1.1" width="225px" height="250px" viewBox="0 0 225 250"><g id="original-54598"><svg xmlns="http://www.w3.org/2000/svg" viewBox="0 0 65 72" xmlns:xlink="http://www.w3.org/1999/xlink" version="1.1" preserveAspectRatio="xMidYMid meet">
  <path fill-rule="evenodd" d="M32.314 8.093C14.933 8.093.833 22.193.833 39.574a31.4 31.4 0 0 0 8.593 21.62c.273.292.556.575.83.849l.029.029c5.683 5.566 13.456 8.993 22.029 8.993 8.446 0 16.121-3.33 21.775-8.749.01 0 .02-.01.03-.02.283-.273.566-.556.83-.84a31.353 31.353 0 0 0 8.856-21.882c0-17.38-14.1-31.48-31.491-31.48zm0 19.744c6.484 0 11.737 5.254 11.737 11.737 0 6.484-5.253 11.747-11.737 11.747-6.474 0-11.727-5.263-11.727-11.747 0-6.483 5.253-11.737 11.727-11.737z" fill="rgba(66, 61, 56, 1)" stroke="none"/>
  <path fill-rule="evenodd" d="M32.314 1.256c-9.29 0-17.64 4.03-23.4 10.43a31.326 31.326 0 0 0-8.08 21.05c0 8.37 3.27 15.99 8.59 21.62.28.29.56.58.83.85l.03.03c.28.28.57.55.87.81a31.325 31.325 0 0 0 21.16 8.18c8.01 0 15.33-3 20.89-7.93.3-.27.6-.54.89-.82.01 0 .01-.01.02-.01.29-.28.57-.56.83-.84 5.49-5.67 8.86-13.39 8.86-21.89 0-17.38-14.1-31.48-31.49-31.48zm-11.71 30.88c0-.11.01-.22.02-.32.04-.61.14-1.21.28-1.78.04-.21.1-.42.17-.63.17-.61.4-1.19.67-1.75.01-.02.02-.03.03-.05.11-.25.24-.49.38-.72.4-.71.88-1.36 1.42-1.96a11.914 11.914 0 0 1 2.43-2.08c.39-.25.8-.48 1.23-.68.15-.08.3-.15.45-.21.59-.26 1.21-.46 1.85-.61.14-.04.28-.07.42-.1.23-.05.46-.09.69-.12.21-.03.41-.06.62-.07.14-.02.28-.03.42-.03.21-.01.42-.02.63-.02a12.559 12.559 0 0 1 1.75.13l.53.09.13.03c.17.03.35.07.52.12.19.05.38.1.56.16.34.1.67.22.99.35a11.816 11.816 0 0 1 3.82 2.56c.26.26.52.54.76.83.12.15.23.29.34.44.12.15.23.31.33.46a11.782 11.782 0 0 1 .85 1.48c.07.14.14.29.2.43.32.75.57 1.54.73 2.35.04.16.06.32.08.48.03.16.05.31.07.47v.01c.02.15.03.29.04.44.01.1.02.2.02.3.01.2.02.4.02.6 0 .22-.01.44-.02.66 0 .06-.01.12-.02.18 0 .13-.01.27-.03.4-.2 1.99-.91 3.84-1.99 5.4-.09.13-.18.26-.28.39-.52.71-1.12 1.35-1.79 1.92-.11.09-.22.18-.33.26-.9.72-1.91 1.31-3 1.73-.12.05-.25.1-.37.14-.14.05-.28.1-.42.14-.14.04-.28.09-.43.12a8.653 8.653 0 0 1-1.27.27c-.25.04-.5.07-.76.09-.34.03-.68.05-1.03.05-.34 0-.68-.01-1.02-.05a11.326 11.326 0 0 1-1.34-.19c-.23-.05-.47-.1-.7-.17-.14-.03-.29-.08-.43-.12a4.93 4.93 0 0 1-.41-.14c-.13-.04-.25-.09-.37-.14-1.18-.45-2.26-1.1-3.22-1.89-.13-.12-.26-.23-.39-.35-.14-.12-.28-.25-.41-.39-.27-.26-.52-.54-.76-.84-.1-.12-.2-.25-.31-.38-.23-.32-.46-.65-.67-1-.1-.16-.19-.32-.28-.49-.55-1-.95-2.09-1.18-3.24a8.41 8.41 0 0 1-.17-1.12 2.69 2.69 0 0 1-.03-.4c-.01-.06-.02-.12-.02-.18-.01-.22-.02-.44-.02-.66 0-.2.01-.4.02-.6z" fill="rgba(244, 174, 105, 1)" stroke="none"/>
  <path fill-rule="evenodd" d="M32.314 1.256c-9.29 0-17.64 4.03-23.4 10.43a31.326 31.326 0 0 0-8.08 21.05c0 8.37 3.27 15.99 8.59 21.62.28.29.56.58.83.85l.03.03c.28.28.57.55.87.81 2.72-.8 4.08-2.39 5.09-3.59.91-1.06 1.39-1.58 2.39-1.76.29-.05.6-.07.91-.07 1.08 0 1.81.96 3.22 3.15.2.31.39.62.6.92 1.92 2.92 4.34 5.62 8.95 5.62 1.76 0 3.31-.31 4.73-.95 2.14-.94 3.55-2.4 4.78-3.69 1.56-1.62 2.45-2.47 4.02-2.47 1.98 0 2.66.47 3.8 1.24.86.59 1.91 1.32 3.56 1.85.3-.27.6-.54.89-.82.01 0 .01-.01.02-.01.29-.28.57-.56.83-.84 5.49-5.67 8.86-13.39 8.86-21.89 0-17.38-14.1-31.48-31.49-31.48zm-11.71 30.88c0-.11.01-.22.02-.32.012-.184.04-.366.062-.548a13.8 13.8 0 0 1 .218-1.232c.05-.21.11-.42.17-.63a9.52 9.52 0 0 1 .225-.677 11.818 11.818 0 0 1 .445-1.073c.01-.02.02-.03.03-.05.12-.24.25-.49.38-.72a11.914 11.914 0 0 1 3.85-4.04c.39-.25.8-.48 1.23-.68.15-.08.3-.15.45-.21.59-.26 1.21-.46 1.85-.61.14-.04.28-.07.42-.1.23-.05.46-.09.69-.12.21-.03.41-.06.62-.07.14-.02.28-.03.42-.03.21-.01.42-.02.63-.02a12.559 12.559 0 0 1 1.75.13c.18.02.35.05.53.09l.13.03c.17.03.35.07.52.12.19.05.38.1.56.16.34.1.67.22.99.35a11.816 11.816 0 0 1 3.82 2.56c.26.26.52.54.76.83.12.15.23.29.34.44.12.15.23.31.33.46a11.782 11.782 0 0 1 .85 1.48c.07.14.14.29.2.43.32.75.57 1.54.73 2.35.04.16.06.32.08.48.03.16.05.31.07.47v.01c.02.14.03.29.04.44.01.1.02.2.02.3.01.2.02.4.02.6 0 .22-.01.44-.02.66 0 .06-.01.12-.02.18 0 .13-.01.26-.03.4-.2 1.99-.91 3.84-1.99 5.4-.09.13-.18.26-.28.39-.52.71-1.12 1.35-1.79 1.92-.11.09-.22.18-.33.26-.9.72-1.91 1.31-3 1.73-.12.05-.24.1-.37.14-.14.05-.28.1-.42.14-.14.04-.28.09-.43.12a8.653 8.653 0 0 1-1.27.27c-.25.04-.5.07-.76.09-.34.03-.68.05-1.03.05-.34 0-.68-.01-1.02-.05a11.326 11.326 0 0 1-1.34-.19c-.23-.05-.47-.1-.7-.17-.14-.03-.29-.08-.43-.12a4.93 4.93 0 0 1-.41-.14c-.13-.04-.25-.09-.37-.14-1.18-.45-2.26-1.1-3.22-1.89-.13-.12-.26-.23-.39-.35-.14-.12-.28-.25-.41-.39-.27-.26-.52-.54-.76-.84-.1-.12-.2-.25-.31-.38-.23-.32-.46-.65-.67-1-.1-.16-.19-.32-.28-.49-.55-1-.95-2.09-1.18-3.24-.08-.37-.13-.74-.17-1.12-.02-.14-.03-.27-.03-.4-.01-.06-.02-.12-.02-.18-.01-.22-.02-.44-.02-.66 0-.2.01-.4.02-.6z" fill="rgba(244, 174, 105, 0.2)" stroke="none"/>
  <path fill-rule="evenodd" d="M64.586 31.47c-.283-7.441-3.154-14.296-7.743-19.657a14.54 14.54 0 0 0-.625-.722C50.778 5.086 43.123 1.11 34.579.525A32.23 32.23 0 0 0 9.611 9.782C3.694 15.642.032 23.756.032 32.74c0 .186 0 .371.01.557 0 .332.01.664.03.986a32.156 32.156 0 0 0 7.45 19.148c.605.723 1.542 1.074 2.46.87 4.883-1.104 4.56-4.903 8.33-5.576a7.67 7.67 0 0 1 1.23-.098c2.607 0 3.857 2.51 5.488 4.97 1.572 2.383 3.486 4.717 7.284 4.717 1.582 0 2.851-.293 3.925-.772 4.17-1.836 5.254-6.337 9.609-6.337 4.472 0 4.491 2.236 8.446 3.33.928.263 1.924-.059 2.558-.801a32.116 32.116 0 0 0 7.734-22.263zm-20.555 1.923c-.341 6.181-5.448 11.093-11.717 11.093-6.26 0-11.366-4.912-11.708-11.093a11.095 11.095 0 0 1 .068-2.06 12.23 12.23 0 0 1 .596-2.539c.147-.41.313-.81.508-1.191 1.904-3.916 5.908-6.601 10.536-6.601 1.582 0 3.105.312 4.482.889a11.737 11.737 0 0 1 7.177 9.491v.01c.049.439.078.888.078 1.347 0 .215-.01.44-.02.654z" fill="rgba(239, 96, 96, 1)" stroke="none"/>
  <path fill-rule="evenodd" d="M64.584 31.466c-.28-7.44-3.15-14.29-7.74-19.65-.2-.25-.41-.49-.63-.73-5.43-6-13.09-9.97-21.63-10.56-9.75-.66-18.65 3.01-24.97 9.26-.25.63-.49 1.26-.7 1.9a34.588 34.588 0 0 0-1.87 11.29c0 10.18 4.33 19.34 11.27 25.75.36-.06.77-.1 1.23-.1 2.61 0 3.86 2.51 5.49 4.97 3.42 1.91 7.19 3.27 11.21 3.94 4.17-1.83 5.25-6.33 9.6-6.33 4.48 0 4.5 2.23 8.45 3.33.22.06.43.09.65.09.72 0 1.42-.32 1.91-.89 5.1-5.94 8.06-13.76 7.73-22.27zm-20.55 1.93c0 .06-.01.12-.02.18 0 .13-.01.26-.03.4-.2 1.99-.91 3.84-1.99 5.4-.09.14-.18.27-.28.39-.52.71-1.12 1.35-1.79 1.92-.11.09-.22.18-.33.26-.9.72-1.91 1.31-3 1.73-.12.05-.24.1-.37.14-.14.05-.28.1-.42.14-.14.05-.28.09-.43.12a8.653 8.653 0 0 1-1.27.27c-.25.04-.5.07-.76.09-.34.03-.68.05-1.03.05-.34 0-.68-.01-1.02-.05a11.326 11.326 0 0 1-1.34-.19c-.23-.05-.47-.1-.7-.17a3.44 3.44 0 0 1-.43-.12 4.93 4.93 0 0 1-.41-.14c-.13-.04-.25-.09-.37-.14-1.18-.45-2.26-1.1-3.22-1.89-.13-.12-.26-.23-.39-.35-.14-.12-.28-.25-.41-.39-.27-.26-.52-.54-.76-.84-.11-.12-.21-.25-.31-.38-.23-.32-.46-.65-.67-1-.1-.16-.19-.32-.28-.49-.55-1-.95-2.09-1.18-3.24-.08-.37-.13-.74-.17-1.12-.02-.14-.03-.27-.03-.4-.01-.06-.02-.12-.02-.18-.01-.22-.02-.44-.02-.66 0-.2.01-.4.02-.6 0-.11.01-.21.02-.32.012-.184.04-.366.062-.548a13.8 13.8 0 0 1 .218-1.232c.05-.21.11-.42.17-.63a9.52 9.52 0 0 1 .225-.677 11.818 11.818 0 0 1 .445-1.073c.01-.02.02-.03.03-.05.12-.24.25-.49.38-.72a11.914 11.914 0 0 1 3.85-4.04c.39-.25.8-.48 1.23-.68.15-.08.3-.14.45-.21.59-.26 1.21-.46 1.85-.61.14-.04.28-.07.42-.1.23-.05.46-.09.69-.12.21-.03.41-.06.62-.07.14-.02.28-.03.42-.03.21-.01.42-.02.63-.02a12.559 12.559 0 0 1 1.75.13c.18.02.35.05.53.09l.13.03c.17.03.35.07.52.12.19.04.38.1.56.16.34.1.67.22.99.35a11.816 11.816 0 0 1 3.82 2.56 9.967 9.967 0 0 1 1.1 1.27c.12.15.23.31.33.46.22.33.43.67.61 1.01.09.16.17.31.24.47.07.14.14.29.2.43.32.75.57 1.54.73 2.35.03.16.06.32.08.48.03.16.05.31.07.47v.01c.02.14.03.29.04.44.01.1.02.2.02.3.01.2.02.4.02.6 0 .22-.01.44-.02.66z" fill="rgba(239, 96, 96, 0.2)" stroke="none"/>
  <path fill-rule="evenodd" d="M43.992 30.786c0 .205-.01.4-.02.596-.673-5.85-5.633-10.38-11.658-10.38-5.996 0-10.946 4.511-11.64 10.33-.02-.175-.02-.36-.02-.546 0-6.445 5.225-11.669 11.67-11.669 6.444 0 11.668 5.224 11.668 11.67z" fill="rgba(239, 96, 96, 0.28)" stroke="none"/>
  <ellipse cx="40.942" cy="6.614" fill-rule="evenodd" transform="rotate(-71.376 40.942 6.614)" rx="2.991" ry="10.608" fill="rgba(239, 96, 96, 0.4)" stroke="none"/>
  <path fill-rule="evenodd" d="M32.984 55.87a.487.487 0 0 1-.394-.777l.743-1.019a.488.488 0 1 1 .789.576l-.744 1.019a.487.487 0 0 1-.394.2z" fill="rgba(239, 96, 96, 0.3)" stroke="none"/>
  <path fill-rule="evenodd" d="M33.633 54.369l-.742 1.015a.49.49 0 0 1-.39.205.553.553 0 0 1-.293-.097.527.527 0 0 1-.176-.264.472.472 0 0 1 .078-.42l.742-1.016a.47.47 0 0 1 .42-.205c.088.01.186.04.264.098a.483.483 0 0 1 .097.684z" fill="rgba(247, 209, 102, 1)" stroke="none"/>
  <path fill-rule="evenodd" d="M33.204 54.007l-.742 1.016a.482.482 0 0 1-.4.205h-.03a.472.472 0 0 1 .078-.42l.742-1.016a.47.47 0 0 1 .42-.205.5.5 0 0 1-.068.42z" fill="rgba(239, 96, 96, 0.1)" stroke="none"/>
  <path fill-rule="evenodd" d="M38.67 47.118a.487.487 0 0 1-.858.15l-.757-1.01a.488.488 0 1 1 .78-.585l.758 1.008a.49.49 0 0 1 .076.437z" fill="rgba(239, 96, 96, 0.3)" stroke="none"/>
  <path fill-rule="evenodd" d="M37.424 46.058l.754 1.006a.49.49 0 0 1 .082.434.553.553 0 0 1-.179.251.526.526 0 0 1-.304.091.472.472 0 0 1-.378-.197l-.755-1.007a.47.47 0 0 1-.073-.461.544.544 0 0 1 .17-.224.483.483 0 0 1 .683.107z" fill="rgba(221, 60, 60, 1)" stroke="none"/>
  <path fill-rule="evenodd" d="M36.953 46.363l.754 1.006a.482.482 0 0 1 .079.443l-.009.028a.472.472 0 0 1-.378-.197l-.754-1.007a.47.47 0 0 1-.074-.461.5.5 0 0 1 .382.188z" fill="rgba(239, 96, 96, 0.1)" stroke="none"/>
  <path fill-rule="evenodd" d="M6.208 34.384a.487.487 0 0 1-.858.15l-.757-1.009a.488.488 0 1 1 .781-.586l.757 1.009c.098.13.12.292.077.436z" fill="rgba(239, 96, 96, 0.3)" stroke="none"/>
  <path fill-rule="evenodd" d="M4.962 33.324l.755 1.006a.49.49 0 0 1 .082.434.553.553 0 0 1-.18.252.527.527 0 0 1-.303.09.472.472 0 0 1-.379-.197l-.754-1.006a.47.47 0 0 1-.073-.462.545.545 0 0 1 .17-.224.483.483 0 0 1 .682.107z" fill="rgba(221, 60, 60, 1)" stroke="none"/>
  <path fill-rule="evenodd" d="M4.491 33.63l.755 1.006a.482.482 0 0 1 .079.443l-.009.028a.472.472 0 0 1-.379-.198l-.754-1.006a.47.47 0 0 1-.073-.462.5.5 0 0 1 .381.188z" fill="rgba(239, 96, 96, 0.1)" stroke="none"/>
  <path fill-rule="evenodd" d="M45.243 48.344a.487.487 0 0 1 .203-.846l1.226-.295a.488.488 0 1 1 .228.95l-1.226.294a.487.487 0 0 1-.431-.103z" fill="rgba(239, 96, 96, 0.3)" stroke="none"/>
  <path fill-rule="evenodd" d="M46.71 47.621l-1.223.294a.49.49 0 0 1-.43-.097.553.553 0 0 1-.16-.264.527.527 0 0 1 .036-.315.472.472 0 0 1 .332-.27l1.223-.292a.47.47 0 0 1 .453.115c.06.064.116.15.137.245a.483.483 0 0 1-.368.584z" fill="rgba(142, 84, 66, 1)" stroke="none"/>
  <path fill-rule="evenodd" d="M46.617 47.068l-1.224.293a.482.482 0 0 1-.437-.103l-.023-.019a.472.472 0 0 1 .332-.27l1.223-.292a.47.47 0 0 1 .453.115.5.5 0 0 1-.324.276z" fill="rgba(239, 96, 96, 0.1)" stroke="none"/>
  <path fill-rule="evenodd" d="M57.563 45.844a.487.487 0 0 1-.74-.458l.103-1.256a.488.488 0 1 1 .974.08l-.105 1.257a.487.487 0 0 1-.232.377z" fill="rgba(239, 96, 96, 0.3)" stroke="none"/>
  <path fill-rule="evenodd" d="M57.336 44.224l-.105 1.254a.49.49 0 0 1-.226.378.553.553 0 0 1-.301.07.526.526 0 0 1-.288-.134.472.472 0 0 1-.151-.4l.104-1.253a.47.47 0 0 1 .252-.393.545.545 0 0 1 .276-.054.483.483 0 0 1 .44.532z" fill="rgba(57, 99, 229, 1)" stroke="none"/>
  <path fill-rule="evenodd" d="M56.781 44.14l-.105 1.253a.482.482 0 0 1-.235.384l-.025.015a.472.472 0 0 1-.151-.4l.104-1.253a.47.47 0 0 1 .252-.393.5.5 0 0 1 .16.394z" fill="rgba(239, 96, 96, 0.1)" stroke="none"/>
  <path fill-rule="evenodd" d="M61.713 40.074a.488.488 0 0 1-.39-.778l.75-1.015a.488.488 0 1 1 .785.58l-.749 1.015a.487.487 0 0 1-.396.198z" fill="rgba(239, 96, 96, 0.3)" stroke="none"/>
  <path fill-rule="evenodd" d="M62.371 38.577l-.748 1.012a.49.49 0 0 1-.391.203.552.552 0 0 1-.293-.1.526.526 0 0 1-.174-.264.472.472 0 0 1 .08-.42l.748-1.011a.47.47 0 0 1 .421-.203c.088.01.185.04.263.1.214.157.261.46.094.683z" fill="rgba(255, 255, 255, 1)" stroke="none"/>
  <path fill-rule="evenodd" d="M61.943 38.214l-.747 1.011a.482.482 0 0 1-.402.203h-.029a.472.472 0 0 1 .08-.42l.748-1.011a.47.47 0 0 1 .421-.203.5.5 0 0 1-.07.42z" fill="rgba(239, 96, 96, 0.1)" stroke="none"/>
  <path fill-rule="evenodd" d="M4.396 46.01a.487.487 0 0 1-.39-.779l.749-1.015a.488.488 0 1 1 .785.58l-.749 1.015a.487.487 0 0 1-.395.199z" fill="rgba(239, 96, 96, 0.3)" stroke="none"/>
  <path fill-rule="evenodd" d="M5.053 44.512l-.747 1.012a.49.49 0 0 1-.392.203.553.553 0 0 1-.292-.1.527.527 0 0 1-.175-.264.472.472 0 0 1 .08-.42l.748-1.01a.47.47 0 0 1 .421-.204.53.53 0 0 1 .263.1c.214.157.262.46.094.683z" fill="rgba(105, 197, 237, 1)" stroke="none"/>
  <path fill-rule="evenodd" d="M4.626 44.149l-.748 1.011a.482.482 0 0 1-.401.203h-.03a.472.472 0 0 1 .08-.42l.748-1.01a.47.47 0 0 1 .421-.204.5.5 0 0 1-.07.42z" fill="rgba(239, 96, 96, 0.1)" stroke="none"/>
  <path fill-rule="evenodd" d="M25.363 45.833a.487.487 0 0 1 .466-.735l1.255.117a.488.488 0 1 1-.091.973l-1.256-.118a.487.487 0 0 1-.374-.237z" fill="rgba(239, 96, 96, 0.3)" stroke="none"/>
  <path fill-rule="evenodd" d="M26.985 45.624l-1.252-.118a.49.49 0 0 1-.376-.231.553.553 0 0 1-.066-.302.527.527 0 0 1 .137-.286.472.472 0 0 1 .4-.147l1.252.118a.47.47 0 0 1 .391.256c.037.08.062.18.051.277a.483.483 0 0 1-.537.433z" fill="rgba(255, 255, 255, 1)" stroke="none"/>
  <path fill-rule="evenodd" d="M27.076 45.07l-1.253-.118a.482.482 0 0 1-.38-.24l-.015-.025a.472.472 0 0 1 .4-.147l1.252.118a.47.47 0 0 1 .391.256.5.5 0 0 1-.395.156z" fill="rgba(239, 96, 96, 0.1)" stroke="none"/>
  <path fill-rule="evenodd" d="M19.437 46.11a.487.487 0 0 1-.524-.695l.554-1.133a.488.488 0 1 1 .877.43l-.554 1.132a.487.487 0 0 1-.353.267z" fill="rgba(239, 96, 96, 0.3)" stroke="none"/>
  <path fill-rule="evenodd" d="M19.814 44.52l-.553 1.13a.49.49 0 0 1-.349.27.553.553 0 0 1-.305-.046.527.527 0 0 1-.22-.228.472.472 0 0 1 .004-.428l.554-1.13a.47.47 0 0 1 .377-.274.544.544 0 0 1 .277.05c.239.116.34.406.215.656z" fill="rgba(249, 91, 48, 1)" stroke="none"/>
  <path fill-rule="evenodd" d="M19.328 44.239l-.553 1.13a.482.482 0 0 1-.358.271l-.03.006a.472.472 0 0 1 .004-.428l.554-1.13a.47.47 0 0 1 .377-.274.5.5 0 0 1 .006.425z" fill="rgba(239, 96, 96, 0.1)" stroke="none"/>
  <path fill-rule="evenodd" d="M46.648 34.327a.488.488 0 0 1-.523-.696l.554-1.133a.488.488 0 1 1 .877.43l-.554 1.132a.487.487 0 0 1-.354.267z" fill="rgba(239, 96, 96, 0.3)" stroke="none"/>
  <path fill-rule="evenodd" d="M47.026 32.736l-.553 1.13a.49.49 0 0 1-.35.27.553.553 0 0 1-.305-.046.526.526 0 0 1-.219-.228.472.472 0 0 1 .004-.428l.553-1.13a.47.47 0 0 1 .378-.274.544.544 0 0 1 .276.05c.24.116.34.406.216.656z" fill="rgba(249, 91, 48, 1)" stroke="none"/>
  <path fill-rule="evenodd" d="M46.54 32.455l-.553 1.13a.482.482 0 0 1-.359.271l-.029.006a.472.472 0 0 1 .004-.428l.553-1.13a.47.47 0 0 1 .378-.274.5.5 0 0 1 .006.425z" fill="rgba(239, 96, 96, 0.1)" stroke="none"/>
  <path fill-rule="evenodd" d="M12.263 43.94a.487.487 0 0 1-.696-.522l.218-1.243a.488.488 0 1 1 .962.17l-.218 1.241a.487.487 0 0 1-.266.355z" fill="rgba(239, 96, 96, 0.3)" stroke="none"/>
  <path fill-rule="evenodd" d="M12.185 42.307l-.219 1.239a.49.49 0 0 1-.26.356.553.553 0 0 1-.306.042.526.526 0 0 1-.274-.16.472.472 0 0 1-.115-.41l.218-1.24a.47.47 0 0 1 .287-.369.545.545 0 0 1 .28-.028.483.483 0 0 1 .389.57z" fill="rgba(255, 255, 255, 1)" stroke="none"/>
  <path fill-rule="evenodd" d="M11.64 42.172l-.219 1.24a.482.482 0 0 1-.268.36l-.027.013a.472.472 0 0 1-.115-.412l.218-1.238a.47.47 0 0 1 .287-.37.5.5 0 0 1 .124.407z" fill="rgba(239, 96, 96, 0.1)" stroke="none"/>
  <path d="M8.831 50.067a.487.487 0 0 1 .87-.002l.576 1.122a.488.488 0 1 1-.87.445l-.574-1.122a.487.487 0 0 1-.002-.443z" fill="rgba(239, 96, 96, 0.3)" stroke="none" fill-rule="evenodd"/>
  <path d="M9.879 51.323l-.573-1.12a.49.49 0 0 1-.007-.441.553.553 0 0 1 .219-.218.527.527 0 0 1 .314-.038c.14.027.27.115.34.259l.573 1.12a.47.47 0 0 1-.006.467.545.545 0 0 1-.206.192.483.483 0 0 1-.654-.221z" fill="rgba(128, 77, 226, 1)" stroke="none" fill-rule="evenodd"/>
  <path d="M10.395 51.102l-.573-1.12a.482.482 0 0 1-.003-.45l.013-.026c.14.027.27.115.34.259l.573 1.12a.47.47 0 0 1-.006.467.5.5 0 0 1-.344-.25z" fill="rgba(239, 96, 96, 0.1)" stroke="none" fill-rule="evenodd"/>
  <path d="M53.491 36.285a.487.487 0 0 1 .322.809l-.832.947a.488.488 0 1 1-.733-.644l.832-.947a.487.487 0 0 1 .411-.165z" fill="rgba(239, 96, 96, 0.3)" stroke="none" fill-rule="evenodd"/>
  <path d="M52.708 37.721l.831-.944a.49.49 0 0 1 .408-.17c.097.01.2.058.283.125.081.076.13.178.15.278a.472.472 0 0 1-.115.411l-.83.945a.47.47 0 0 1-.437.166.545.545 0 0 1-.254-.121.483.483 0 0 1-.036-.69z" fill="rgba(128, 77, 226, 1)" stroke="none" fill-rule="evenodd"/>
  <path d="M53.104 38.12l.83-.945a.482.482 0 0 1 .418-.167l.029.002a.472.472 0 0 1-.116.411l-.83.945a.47.47 0 0 1-.437.166.5.5 0 0 1 .106-.412z" fill="rgba(239, 96, 96, 0.1)" stroke="none" fill-rule="evenodd"/>
  <path d="M51.285 49.798a.487.487 0 0 1 .87-.002l.575 1.123a.488.488 0 1 1-.87.445l-.574-1.123a.487.487 0 0 1-.001-.443z" fill="rgba(239, 96, 96, 0.3)" stroke="none" fill-rule="evenodd"/>
  <path d="M52.332 51.054l-.573-1.12a.49.49 0 0 1-.007-.44.553.553 0 0 1 .22-.218.527.527 0 0 1 .314-.038.47.47 0 0 1 .34.258l.572 1.12a.47.47 0 0 1-.006.467.545.545 0 0 1-.206.192.483.483 0 0 1-.654-.22z" fill="rgba(255, 255, 255, 1)" stroke="none" fill-rule="evenodd"/>
  <path d="M52.848 50.833l-.572-1.12a.482.482 0 0 1-.003-.45l.013-.025a.47.47 0 0 1 .34.258l.572 1.12a.47.47 0 0 1-.006.467.5.5 0 0 1-.344-.25z" fill="rgba(239, 96, 96, 0.1)" stroke="none" fill-rule="evenodd"/>
  <path fill-rule="evenodd" d="M43.032 42.144a.487.487 0 0 1 .87-.002l.576 1.123a.488.488 0 1 1-.87.444l-.574-1.122a.487.487 0 0 1-.002-.443z" fill="rgba(239, 96, 96, 0.3)" stroke="none"/>
  <path fill-rule="evenodd" d="M44.08 43.4l-.573-1.12a.49.49 0 0 1-.007-.44.552.552 0 0 1 .219-.218.526.526 0 0 1 .314-.039c.14.027.27.115.34.26l.573 1.119a.47.47 0 0 1-.006.467.545.545 0 0 1-.206.192.483.483 0 0 1-.654-.22z" fill="rgba(174, 201, 91, 1)" stroke="none"/>
  <path fill-rule="evenodd" d="M44.596 43.18l-.573-1.12a.482.482 0 0 1-.003-.45l.013-.027c.14.027.27.115.34.26l.573 1.119a.47.47 0 0 1-.006.467.5.5 0 0 1-.344-.25z" fill="rgba(239, 96, 96, 0.1)" stroke="none"/>
  <g>
    <path d="M28.355 49.916a.487.487 0 0 1 .87-.002l.576 1.123a.488.488 0 1 1-.87.444l-.574-1.122a.487.487 0 0 1-.002-.443z" fill="rgba(239, 96, 96, 0.3)" stroke="none" fill-rule="evenodd"/>
    <path d="M29.403 51.172l-.573-1.12a.49.49 0 0 1-.007-.44.553.553 0 0 1 .219-.218.527.527 0 0 1 .314-.039c.14.027.27.115.34.26l.573 1.119a.47.47 0 0 1-.006.467.545.545 0 0 1-.206.192.483.483 0 0 1-.654-.22z" fill="rgba(239, 202, 48, 1)" stroke="none" fill-rule="evenodd"/>
    <path d="M29.919 50.951l-.573-1.12a.482.482 0 0 1-.003-.45l.013-.026c.14.027.27.115.34.26l.573 1.119a.47.47 0 0 1-.006.467.5.5 0 0 1-.344-.25z" fill="rgba(239, 96, 96, 0.1)" stroke="none" fill-rule="evenodd"/>
  </g>
  <g>
    <path d="M16.029 36.643a.488.488 0 0 1 .334.804l-.818.96a.488.488 0 1 1-.743-.634l.818-.96a.487.487 0 0 1 .409-.17z" fill="rgba(239, 96, 96, 0.3)" stroke="none" fill-rule="evenodd"/>
    <path d="M15.267 38.09l.817-.956a.49.49 0 0 1 .405-.175.553.553 0 0 1 .285.12.526.526 0 0 1 .155.275.472.472 0 0 1-.11.413l-.816.957a.47.47 0 0 1-.434.173.544.544 0 0 1-.256-.118.483.483 0 0 1-.046-.689z" fill="rgba(239, 202, 48, 1)" stroke="none" fill-rule="evenodd"/>
    <path d="M15.669 38.483l.816-.957a.482.482 0 0 1 .415-.174l.03.002a.472.472 0 0 1-.11.413l-.817.957a.47.47 0 0 1-.434.173.5.5 0 0 1 .1-.414z" fill="rgba(239, 96, 96, 0.1)" stroke="none" fill-rule="evenodd"/>
  </g>
</svg>
</g></svg></g></g>
<!-- /image 54598 -->

<!-- image 48053 -->
<g id="transformed-48053" data-image="48053" transform="translate(141, -125) rotate(0, 108, 125)"><g><svg version="1.1" width="216px" height="250px" viewBox="0 0 216 250"><g id="original-48053"><svg xmlns="http://www.w3.org/2000/svg" viewBox="0 0 64 74" xmlns:xlink="http://www.w3.org/1999/xlink" version="1.1" preserveAspectRatio="xMidYMid meet">
  <path fill-rule="evenodd" d="M63.854 41.386a12.81 12.81 0 0 0-4.52-9.773V17.05a3 3 0 0 0-3-3H41.773C39.416 11.288 35.915 9.53 32 9.53c-3.916 0-7.416 1.757-9.773 4.52H7.665a3 3 0 0 0-3 3v14.562C1.902 33.969.145 37.47.145 41.386c0 3.915 1.757 7.416 4.52 9.772v14.563a3 3 0 0 0 3 3h14.562c2.357 2.762 5.857 4.52 9.773 4.52 3.915 0 7.416-1.758 9.772-4.52h14.563a3 3 0 0 0 3-3V51.158c2.762-2.356 4.52-5.857 4.52-9.772z" fill="rgba(42, 42, 42, 1)" stroke="none"/>
  <path fill-rule="evenodd" d="M56.335 59.72H7.665a3 3 0 0 1-3-3V8.05a3 3 0 0 1 3-3h48.67a3 3 0 0 1 3 3v48.67a3 3 0 0 1-3 3z" fill="rgba(249, 204, 78, 1)" stroke="none"/>
  <circle cx="16.859" cy="17.242" r="10.446" fill-rule="evenodd" transform="rotate(-45 16.859 17.242)" fill="rgba(209, 104, 84, 1)" stroke="none"/>
  <circle cx="16.859" cy="17.242" r="9.251" fill-rule="evenodd" transform="rotate(-45 16.859 17.242)" fill="rgba(181, 73, 44, 1)" stroke="none"/>
  <circle cx="16.859" cy="17.242" r="7.022" fill-rule="evenodd" transform="rotate(-45 16.859 17.242)" fill="rgba(209, 104, 84, 1)" stroke="none"/>
  <circle cx="47.145" cy="17.242" r="10.446" fill-rule="evenodd" transform="rotate(-45 47.145 17.242)" fill="rgba(209, 104, 84, 1)" stroke="none"/>
  <circle cx="47.145" cy="17.242" r="9.251" fill-rule="evenodd" transform="rotate(-45 47.145 17.242)" fill="rgba(181, 73, 44, 1)" stroke="none"/>
  <circle cx="47.145" cy="17.242" r="7.022" fill-rule="evenodd" transform="rotate(-45 47.145 17.242)" fill="rgba(209, 104, 84, 1)" stroke="none"/>
  <circle cx="47.146" cy="47.529" r="10.446" fill-rule="evenodd" transform="rotate(-45 47.146 47.529)" fill="rgba(209, 104, 84, 1)" stroke="none"/>
  <circle cx="47.146" cy="47.529" r="9.251" fill-rule="evenodd" transform="rotate(-45 47.146 47.529)" fill="rgba(181, 73, 44, 1)" stroke="none"/>
  <circle cx="47.146" cy="47.529" r="7.022" fill-rule="evenodd" transform="rotate(-45 47.146 47.529)" fill="rgba(209, 104, 84, 1)" stroke="none"/>
  <circle cx="16.859" cy="47.529" r="10.446" fill-rule="evenodd" transform="rotate(-45 16.859 47.529)" fill="rgba(209, 104, 84, 1)" stroke="none"/>
  <circle cx="16.859" cy="47.529" r="9.251" fill-rule="evenodd" transform="rotate(-45 16.859 47.529)" fill="rgba(181, 73, 44, 1)" stroke="none"/>
  <circle cx="16.859" cy="47.529" r="7.022" fill-rule="evenodd" transform="rotate(-45 16.859 47.529)" fill="rgba(209, 104, 84, 1)" stroke="none"/>
  <circle cx="12.993" cy="32.386" r="12.848" fill-rule="evenodd" fill="rgba(153, 198, 74, 1)" stroke="none"/>
  <circle cx="32" cy="13.379" r="12.848" fill-rule="evenodd" fill="rgba(153, 198, 74, 1)" stroke="none"/>
  <circle cx="51.006" cy="32.386" r="12.848" fill-rule="evenodd" fill="rgba(153, 198, 74, 1)" stroke="none"/>
  <circle cx="32" cy="51.392" r="12.848" fill-rule="evenodd" fill="rgba(153, 198, 74, 1)" stroke="none"/>
  <path fill-rule="evenodd" d="M4.665 46.768a28.002 28.002 0 0 0 6.993 12.953h40.683a28.002 28.002 0 0 0 6.994-12.953V34.003C56.444 21.575 45.307 12.313 32 12.313c-13.308 0-24.444 9.263-27.335 21.69v12.765z" fill="rgba(83, 71, 65, 0.1)" stroke="none"/>
  <circle cx="32" cy="32.386" r="28.073" fill-rule="evenodd" fill="rgba(229, 175, 110, 1)" stroke="none"/>
  <circle cx="32" cy="32.386" r="26.615" fill-rule="evenodd" fill="rgba(206, 151, 91, 1)" stroke="none"/>
  <ellipse cx="32" cy="26.191" fill-rule="evenodd" rx="22.166" ry="19.293" fill="rgba(229, 175, 110, 1)" stroke="none"/>
  <ellipse cx="32" cy="14.216" fill-rule="evenodd" rx="1.651" ry=".837" fill="rgba(255, 232, 194, 1)" stroke="none"/>
  <ellipse cx="32" cy="32.386" fill-rule="evenodd" rx="1.651" ry=".837" fill="rgba(255, 232, 194, 1)" stroke="none"/>
  <ellipse cx="22.56" cy="36.229" fill-rule="evenodd" transform="rotate(-22.156 22.56 36.23)" rx=".837" ry="1.65" fill="rgba(255, 232, 194, 1)" stroke="none"/>
  <ellipse cx="22.608" cy="28.427" fill-rule="evenodd" transform="rotate(-67.156 22.608 28.427)" rx="1.651" ry=".837" fill="rgba(255, 232, 194, 1)" stroke="none"/>
  <ellipse cx="28.156" cy="22.947" fill-rule="evenodd" transform="rotate(-22.156 28.156 22.947)" rx="1.65" ry=".837" fill="rgba(255, 232, 194, 1)" stroke="none"/>
  <ellipse cx="35.957" cy="22.992" fill-rule="evenodd" transform="rotate(-67.156 35.957 22.992)" rx=".837" ry="1.651" fill="rgba(255, 232, 194, 1)" stroke="none"/>
  <ellipse cx="41.439" cy="28.542" fill-rule="evenodd" transform="rotate(-22.156 41.439 28.542)" rx=".837" ry="1.65" fill="rgba(255, 232, 194, 1)" stroke="none"/>
  <ellipse cx="41.393" cy="36.34" fill-rule="evenodd" transform="rotate(-67.156 41.393 36.34)" rx="1.651" ry=".837" fill="rgba(255, 232, 194, 1)" stroke="none"/>
  <ellipse cx="35.843" cy="41.825" fill-rule="evenodd" transform="rotate(-22.156 35.843 41.825)" rx="1.65" ry=".837" fill="rgba(255, 232, 194, 1)" stroke="none"/>
  <ellipse cx="28.044" cy="41.776" fill-rule="evenodd" transform="rotate(-67.156 28.044 41.776)" rx=".837" ry="1.651" fill="rgba(255, 232, 194, 1)" stroke="none"/>
  <ellipse cx="44.85" cy="19.537" fill-rule="evenodd" transform="rotate(-45 44.85 19.537)" rx=".837" ry="1.651" fill="rgba(255, 232, 194, 1)" stroke="none"/>
  <ellipse cx="50.17" cy="32.386" fill-rule="evenodd" rx=".837" ry="1.651" fill="rgba(255, 232, 194, 1)" stroke="none"/>
  <ellipse cx="44.85" cy="45.233" fill-rule="evenodd" transform="rotate(-45 44.85 45.233)" rx="1.651" ry=".837" fill="rgba(255, 232, 194, 1)" stroke="none"/>
  <ellipse cx="32" cy="50.556" fill-rule="evenodd" rx="1.651" ry=".837" fill="rgba(255, 232, 194, 1)" stroke="none"/>
  <ellipse cx="19.154" cy="45.234" fill-rule="evenodd" transform="rotate(-45 19.154 45.234)" rx=".837" ry="1.651" fill="rgba(255, 232, 194, 1)" stroke="none"/>
  <ellipse cx="13.83" cy="32.386" fill-rule="evenodd" rx=".837" ry="1.651" fill="rgba(255, 232, 194, 1)" stroke="none"/>
  <ellipse cx="19.154" cy="19.537" fill-rule="evenodd" transform="rotate(-45 19.154 19.537)" rx="1.651" ry=".837" fill="rgba(255, 232, 194, 1)" stroke="none"/>
</svg>
</g></svg></g></g>
<!-- /image 48053 -->
</defs><rect x="0" y="0" width="250" height="250" fill="rgba(41, 41, 41, 1)"></rect><use xlink:href="#transformed-38008" transform="translate(-250, -250)"></use><use xlink:href="#transformed-38008" transform="translate(0, -250)"></use><use xlink:href="#transformed-38008" transform="translate(250, -250)"></use><use xlink:href="#transformed-38008" transform="translate(-250, 0)"></use><use xlink:href="#transformed-38008" transform="translate(0, 0)"></use><use xlink:href="#transformed-38008" transform="translate(250, 0)"></use><use xlink:href="#transformed-38008" transform="translate(-250, 250)"></use><use xlink:href="#transformed-38008" transform="translate(0, 250)"></use><use xlink:href="#transformed-38008" transform="translate(250, 250)"></use><use xlink:href="#transformed-54598" transform="translate(-250, -250)"></use><use xlink:href="#transformed-54598" transform="translate(0, -250)"></use><use xlink:href="#transformed-54598" transform="translate(250, -250)"></use><use xlink:href="#transformed-54598" transform="translate(-250, 0)"></use><use xlink:href="#transformed-54598" transform="translate(0, 0)"></use><use xlink:href="#transformed-54598" transform="translate(250, 0)"></use><use xlink:href="#transformed-54598" transform="translate(-250, 250)"></use><use xlink:href="#transformed-54598" transform="translate(0, 250)"></use><use xlink:href="#transformed-54598" transform="translate(250, 250)"></use><use xlink:href="#transformed-48053" transform="translate(-250, -250)"></use><use xlink:href="#transformed-48053" transform="translate(0, -250)"></use><use xlink:href="#transformed-48053" transform="translate(250, -250)"></use><use xlink:href="#transformed-48053" transform="translate(-250, 0)"></use><use xlink:href="#transformed-48053" transform="translate(0, 0)"></use><use xlink:href="#transformed-48053" transform="translate(250, 0)"></use><use xlink:href="#transformed-48053" transform="translate(-250, 250)"></use><use xlink:href="#transformed-48053" transform="translate(0, 250)"></use><use xlink:href="#transformed-48053" transform="translate(250, 250)"></use></svg>