<?xml version="1.0" standalone="no"?>
<!DOCTYPE svg PUBLIC "-//W3C//DTD SVG 20010904//EN"
 "http://www.w3.org/TR/2001/REC-SVG-20010904/DTD/svg10.dtd">
<svg version="1.0" xmlns="http://www.w3.org/2000/svg"
 width="512.000000pt" height="512.000000pt" viewBox="0 0 512.000000 512.000000"
 preserveAspectRatio="xMidYMid meet">
<metadata>
Created by potrace 1.11, written by Peter Selinger 2001-2013
</metadata>
<g transform="translate(0.000000,512.000000) scale(0.100000,-0.100000)"
fill="#000000" stroke="none">
<path d="M4293 4971 c-24 -7 -34 -17 -212 -235 -132 -162 -158 -200 -193 -291
-22 -58 -23 -71 -23 -349 l0 -289 26 -19 c21 -16 30 -17 51 -8 37 17 45 43 43
154 l-1 98 55 -5 c207 -23 449 -135 578 -268 83 -86 113 -128 159 -224 43 -88
92 -250 80 -263 -4 -3 -164 -6 -356 -6 -317 -1 -351 -3 -370 -18 -26 -23 -26
-62 0 -88 19 -19 33 -20 423 -20 379 0 405 -1 420 -18 14 -15 17 -41 17 -143
l0 -124 -1092 -1 c-601 0 -1095 3 -1098 7 -3 4 -4 60 -3 124 1 95 4 120 19
136 16 18 35 19 419 19 l402 0 22 24 c30 32 22 80 -17 94 -17 7 -153 10 -360
9 -184 -1 -339 1 -345 5 -14 9 23 157 62 243 83 183 239 337 429 422 31 14 99
38 151 54 52 15 100 34 106 41 41 43 13 103 -46 101 -87 -3 -326 -103 -434
-181 -209 -152 -345 -366 -396 -625 -11 -56 -18 -71 -38 -82 -15 -7 -36 -24
-48 -37 -43 -46 -51 -83 -52 -263 -2 -217 -4 -215 133 -215 l94 0 7 -62 c4
-35 9 -74 10 -88 3 -21 10 -91 20 -195 5 -49 17 -162 20 -185 2 -14 7 -56 10
-95 3 -38 8 -84 10 -102 3 -18 7 -58 10 -90 3 -32 7 -74 10 -93 11 -94 20
-179 30 -280 3 -36 8 -83 11 -105 12 -96 14 -113 19 -170 12 -132 16 -171 20
-195 2 -14 6 -54 10 -90 3 -36 8 -81 10 -100 2 -19 7 -60 10 -90 3 -30 8 -71
10 -90 3 -19 7 -64 10 -100 3 -36 7 -76 10 -90 2 -14 7 -54 10 -90 18 -201 27
-251 50 -266 19 -13 121 -15 699 -15 451 0 682 4 695 11 27 14 31 30 45 180
12 121 17 167 21 200 7 52 13 116 20 195 4 39 8 81 10 95 4 32 13 110 19 175
11 104 17 161 21 195 5 36 11 96 20 190 3 30 7 71 10 90 3 19 7 60 10 90 6 67
14 143 20 190 4 34 9 83 21 200 3 30 7 71 9 90 7 50 21 185 30 280 3 30 7 71
10 90 5 42 12 101 21 190 3 36 8 74 9 85 1 11 3 26 4 33 1 9 27 12 94 12 133
0 131 -3 132 203 1 89 -3 180 -9 201 -10 41 -75 116 -100 116 -9 0 -18 22 -25
63 -64 332 -247 577 -535 717 -55 27 -121 56 -146 64 -58 20 -202 53 -258 60
-24 3 -47 8 -52 11 -13 8 -4 165 14 227 20 71 50 114 224 326 145 177 159 204
125 234 -27 22 -36 25 -60 19z m462 -2323 c-4 -46 -9 -90 -10 -99 -2 -8 -6
-49 -10 -90 -3 -41 -8 -85 -10 -99 -2 -14 -7 -54 -10 -90 -4 -36 -8 -76 -10
-90 -2 -14 -6 -56 -10 -95 -12 -126 -14 -137 -19 -143 -8 -7 -1545 -9 -1557
-1 -11 7 -15 23 -24 116 -4 40 -8 85 -10 100 -2 15 -7 62 -10 103 -4 41 -9 82
-10 90 -2 8 -6 49 -10 90 -3 41 -8 86 -10 100 -2 14 -7 53 -10 88 -3 35 -6 67
-6 70 -5 32 -7 32 867 32 l866 0 -7 -82z m-89 -846 c-2 -4 -7 -41 -11 -82 -3
-41 -8 -86 -10 -100 -2 -14 -6 -59 -10 -100 -4 -41 -9 -88 -11 -105 -5 -37
-12 -109 -19 -177 -11 -104 -17 -143 -25 -148 -11 -7 -1369 -5 -1375 2 -7 7
-12 37 -20 123 -3 39 -8 81 -10 95 -2 14 -7 57 -10 95 -4 39 -8 84 -10 100
-10 83 -15 125 -20 180 -3 33 -8 75 -10 93 l-5 32 776 0 c426 0 773 -3 770 -8z
m-230 -842 l140 0 -7 -62 c-15 -132 -24 -211 -34 -323 -4 -44 -9 -82 -10 -85
-2 -3 -6 -41 -10 -85 -3 -44 -8 -89 -10 -100 -2 -11 -4 -25 -4 -31 -1 -8 -172
-11 -606 -11 l-604 0 -5 26 c-5 24 -7 45 -21 176 -3 28 -7 68 -9 90 -3 22 -7
69 -11 105 -3 36 -8 76 -10 90 -2 14 -7 54 -10 90 -3 36 -8 77 -11 92 -4 22
-1 27 18 30 13 2 257 2 543 1 286 -1 583 -2 661 -3z"/>
<path d="M4510 2437 c-19 -5 -102 -32 -185 -59 -82 -28 -177 -56 -209 -63 -93
-21 -208 -17 -311 11 -199 54 -319 75 -447 79 -115 4 -129 2 -152 -16 -31 -24
-34 -61 -6 -89 15 -15 32 -19 87 -18 121 1 234 -13 373 -49 74 -19 144 -36
155 -39 140 -35 298 -22 460 38 44 16 133 44 199 63 65 19 124 40 132 46 15
13 18 57 6 77 -13 20 -64 29 -102 19z"/>
<path d="M3874 1723 c-20 -4 -44 -40 -44 -67 0 -22 33 -44 83 -56 61 -13 91
-33 118 -76 65 -105 -12 -246 -134 -246 -106 0 -177 87 -162 198 4 35 2 47
-15 64 -53 53 -111 6 -113 -90 -2 -162 120 -291 279 -296 81 -3 142 18 201 70
121 106 132 286 24 409 -53 60 -170 104 -237 90z"/>
<path d="M3836 3249 c-53 -41 -17 -109 57 -109 72 0 107 40 81 92 -21 40 -97
50 -138 17z"/>
<path d="M1189 2666 c-2 -2 -26 -7 -54 -11 -233 -30 -469 -154 -639 -335 -182
-194 -284 -432 -301 -705 -4 -52 -1 -68 16 -89 l20 -26 1258 0 c1247 0 1259 0
1284 20 20 16 24 27 21 48 -11 61 78 57 -1237 58 -661 1 -1209 2 -1219 3 -13
1 -16 9 -13 45 5 59 35 189 46 200 5 6 9 16 9 24 0 24 77 171 124 236 157 218
380 354 666 403 47 8 1135 9 1200 0 36 -4 107 -19 159 -33 122 -33 145 -27
157 44 4 24 -34 51 -103 72 -154 46 -195 49 -809 49 -320 0 -583 -1 -585 -3z"/>
<path d="M1153 2399 c-25 -9 -30 -17 -37 -52 -13 -73 146 -95 173 -24 10 25
-12 76 -32 78 -45 6 -87 5 -104 -2z"/>
<path d="M1710 2388 c-27 -25 -26 -73 2 -92 12 -9 42 -16 66 -16 76 0 113 60
66 110 -22 22 -109 21 -134 -2z"/>
<path d="M2286 2389 c-17 -13 -23 -27 -22 -49 3 -42 17 -53 79 -58 47 -4 57
-1 76 19 45 48 13 101 -64 105 -31 2 -52 -3 -69 -17z"/>
<path d="M851 1957 c-29 -31 -27 -61 7 -87 21 -17 36 -21 71 -17 51 6 74 25
74 62 0 39 -25 58 -81 61 -40 3 -53 -1 -71 -19z"/>
<path d="M1422 1953 c-43 -43 -3 -102 70 -101 29 0 48 7 65 24 29 29 29 49 -1
79 -33 33 -100 32 -134 -2z"/>
<path d="M2002 1960 c-48 -45 -15 -110 55 -110 71 0 110 44 83 95 -21 40 -102
48 -138 15z"/>
<path d="M2585 1969 c-42 -25 -47 -65 -12 -96 26 -24 103 -27 131 -4 20 17 21
74 1 91 -21 17 -96 23 -120 9z"/>
<path d="M44 1508 c-45 -20 -50 -85 -13 -145 23 -36 69 -73 92 -73 26 0 27
-14 6 -71 -16 -42 -20 -71 -17 -129 6 -129 76 -237 192 -293 72 -35 120 -36
142 -1 28 42 10 74 -56 99 -69 28 -123 79 -143 138 -18 53 -14 124 8 168 l16
29 72 -49 c40 -27 99 -58 132 -70 l60 -22 0 -332 c0 -372 1 -380 73 -435 30
-23 45 -27 103 -27 60 0 71 3 106 31 53 43 72 86 73 165 0 69 10 89 46 89 29
0 40 -16 48 -72 23 -156 204 -243 341 -163 51 30 70 50 94 106 18 40 21 68 21
220 2 392 2 397 -20 419 -26 26 -62 26 -85 0 -17 -19 -18 -44 -20 -298 0 -197
-4 -283 -13 -299 -19 -34 -53 -53 -95 -53 -55 0 -92 39 -102 108 -9 67 -39
112 -95 139 -56 27 -118 24 -170 -11 -49 -32 -68 -77 -73 -165 -3 -56 -8 -75
-23 -86 -26 -20 -41 -18 -64 5 -19 19 -20 33 -20 334 l0 314 68 12 c84 14 130
34 227 100 100 68 151 89 225 97 99 9 167 -11 288 -87 152 -94 196 -110 317
-114 123 -5 211 25 331 110 91 65 145 86 234 90 102 4 151 -12 269 -89 53 -35
118 -72 144 -82 43 -16 48 -16 71 -2 55 37 41 84 -36 123 -27 14 -87 50 -131
80 -101 68 -185 95 -292 96 -133 0 -194 -20 -330 -112 -38 -26 -83 -54 -100
-62 -51 -26 -156 -37 -224 -23 -34 7 -134 58 -222 113 -42 27 -101 56 -131 66
-101 31 -273 19 -362 -26 -21 -11 -75 -44 -118 -73 -108 -73 -158 -88 -267
-83 -97 5 -118 14 -260 107 -48 31 -110 63 -137 71 -67 17 -94 36 -94 64 0 40
-49 70 -86 54z"/>
<path d="M1543 864 c-24 -24 -25 -45 -6 -79 11 -20 23 -20 673 -23 l660 -2 25
24 c29 29 26 64 -7 86 -19 13 -111 15 -672 16 l-651 0 -22 -22z"/>
<path d="M246 664 c-25 -24 -29 -55 -24 -182 3 -91 9 -127 25 -164 30 -65 86
-123 152 -156 l56 -27 1230 -3 1231 -2 22 20 c27 25 28 50 3 81 l-19 24 -1209
0 c-944 1 -1216 4 -1245 14 -47 16 -105 80 -113 125 -4 19 -8 82 -9 140 -1 81
-5 109 -17 121 -23 23 -65 28 -83 9z"/>
</g>
</svg>
